<?xml version="1.0" encoding="UTF-8"?>
<svg id="Camada_2" data-name="Camada 2" xmlns="http://www.w3.org/2000/svg" viewBox="0 0 234.51 89.28">
  <defs>
    <style>
      .cls-1 {
        fill: #505b5b;
      }

      .cls-2 {
        fill: #78b4ba;
      }
    </style>
  </defs>
  <g id="Camada_1-2" data-name="Camada 1">
    <g>
      <polygon class="cls-2" points=".94 9.53 22.98 9.53 0 46.98 0 54.89 35.5 54.89 35.5 45.35 12.45 45.35 35.5 7.69 35.5 .43 .94 .43 .94 9.53"/>
      <path class="cls-2" d="M98.71,9.91c-1.3-2.54-3.4-4.82-6.27-6.79-2.94-2.02-6.64-3.08-11.01-3.13-4.31.05-7.97,1.1-10.87,3.12-2.92,1.97-5.08,4.26-6.43,6.81-.84,1.37-1.48,3.16-1.88,5.33-.37,2.14-.55,6.2-.55,12.4,0,6.11.18,10.14.55,12.33.2,1.19.46,2.2.79,3.04.31.72.67,1.5,1.08,2.33,1.34,2.56,3.52,4.84,6.43,6.76,2.91,2.02,6.57,3.1,10.92,3.2,4.35-.1,8.05-1.18,10.97-3.19,2.87-1.92,4.98-4.18,6.28-6.72.95-1.38,1.61-3.21,1.96-5.44.32-2.18.48-6.21.48-12.3,0-6.19-.16-10.24-.48-12.39-.35-2.17-1.01-3.97-1.96-5.35ZM74.06,13.45l.05-.06c.75-.96,1.75-1.78,2.98-2.42,1.2-.62,2.67-.96,4.33-1,1.74.04,3.25.38,4.47.99,1.18.64,2.13,1.45,2.83,2.41l.07.08c.9.99,1.54,2.3,1.88,3.86.35,1.8.52,5.28.52,10.35s-.17,8.52-.52,10.26c-.34,1.63-.98,2.96-1.88,3.95l-.07.08c-.69.95-1.64,1.73-2.85,2.35-1.23.7-2.72,1.06-4.43,1.06s-3.13-.35-4.31-1.05l-.07-.04c-1.22-.6-2.22-1.39-2.96-2.34l-.05-.06c-.9-.98-1.5-2.3-1.81-3.95-.37-1.74-.55-5.2-.55-10.26,0-5.06.19-8.54.56-10.35.3-1.58.91-2.88,1.8-3.86Z"/>
      <polygon class="cls-2" points="160.71 .43 140.48 25.75 140.48 .43 130.51 .43 130.51 54.89 140.48 54.89 140.48 39.38 149.44 28.89 172.75 .43 160.71 .43"/>
      <polygon class="cls-2" points="149.85 32.57 162.27 55.08 174.05 55.08 156.36 24.84 149.85 32.57"/>
      <polygon class="cls-2" points="234.51 9.97 234.51 .43 199.01 .43 199.01 54.89 234.51 54.89 234.51 45.35 208.97 45.35 208.97 31.98 230.77 31.98 230.77 22.91 208.97 22.91 208.97 9.97 234.51 9.97"/>
    </g>
    <g>
      <path class="cls-1" d="M2.24,71.49h3.17c2.32,0,3.89.79,3.89,3.09s-1.59,3.25-3.89,3.25h-1.83v4.17h-1.35v-10.51ZM5.25,76.75c1.83,0,2.71-.67,2.71-2.16s-.9-2-2.71-2h-1.67v4.17h1.67Z"/>
      <path class="cls-1" d="M18.21,71.49h3.28c2.13,0,3.69.77,3.69,2.96s-1.55,3.11-3.69,3.11h-1.92v4.44h-1.36v-10.51ZM21.3,76.48c1.63,0,2.53-.67,2.53-2.02s-.9-1.88-2.53-1.88h-1.73v3.89h1.73ZM22.28,76.49l3.2,5.51h-1.52l-2.74-4.81,1.06-.71Z"/>
      <path class="cls-1" d="M36.68,71.49h1.54l3.54,10.51h-1.44l-1.81-5.86c-.37-1.17-.72-2.32-1.04-3.54h-.06c-.34,1.22-.67,2.37-1.04,3.54l-1.84,5.86h-1.38l3.54-10.51ZM35.01,77.73h4.82v1.09h-4.82v-1.09Z"/>
      <path class="cls-1" d="M50.19,80.87h2.61v-8.24h-2.61v-1.14h6.57v1.14h-2.61v8.24h2.61v1.14h-6.57v-1.14Z"/>
      <path class="cls-1" d="M68.72,71.49h1.54l3.54,10.51h-1.44l-1.81-5.86c-.37-1.17-.72-2.32-1.04-3.54h-.06c-.34,1.22-.67,2.37-1.04,3.54l-1.84,5.86h-1.38l3.54-10.51ZM67.06,77.73h4.82v1.09h-4.82v-1.09Z"/>
      <path class="cls-1" d="M97.4,79.28c0-3.03,4.53-3.62,4.53-5.88,0-.61-.26-1.15-.96-1.15s-1.17.66-1.17,1.52c0,1.97,2.1,4.58,4.05,6.07.75.62,1.47,1.04,2.11,1.25l-.37,1.11c-.79-.24-1.63-.72-2.55-1.46-2.24-1.79-4.41-4.79-4.41-6.94,0-1.41.93-2.5,2.31-2.5s2.05.85,2.05,2.08c0,2.61-4.33,3.46-4.33,5.82,0,1.17.9,1.94,2.02,1.94.82,0,1.59-.51,2.21-1.23.8-.93,1.36-2.13,1.71-3.57h1.23c-.42,1.57-1.07,3.01-2.02,4.21-.85.98-1.89,1.65-3.3,1.65-1.86,0-3.14-1.22-3.14-2.92Z"/>
      <path class="cls-1" d="M130.9,71.49h6.46v1.14h-5.11v3.54h4.33v1.14h-4.33v4.69h-1.35v-10.51Z"/>
      <path class="cls-1" d="M146.31,80.87h2.61v-8.24h-2.61v-1.14h6.57v1.14h-2.61v8.24h2.61v1.14h-6.57v-1.14Z"/>
      <path class="cls-1" d="M164.95,72.63h-3.48v-1.14h8.3v1.14h-3.48v9.37h-1.35v-9.37Z"/>
      <path class="cls-1" d="M178.15,71.49h1.47l3.36,6.6,1.01,2.18h.03c-.05-1.04-.18-2.23-.18-3.33v-5.45h1.28v10.51h-1.47l-3.36-6.6-1.01-2.18h-.03c.05,1.07.18,2.2.18,3.29v5.5h-1.28v-10.51Z"/>
      <path class="cls-1" d="M194.68,71.49h6.5v1.14h-5.16v3.29h4.36v1.14h-4.36v3.81h5.32v1.14h-6.67v-10.51Z"/>
      <path class="cls-1" d="M209.95,80.64l.8-.93c.8.79,1.89,1.3,3.08,1.3,1.44,0,2.27-.69,2.27-1.65,0-1.12-.82-1.44-1.87-1.89l-1.52-.67c-1.04-.42-2.26-1.15-2.26-2.71s1.44-2.79,3.44-2.79c1.31,0,2.47.53,3.24,1.3l-.71.86c-.69-.61-1.49-.98-2.58-.98-1.22,0-2.04.58-2.04,1.52,0,1.01.98,1.38,1.88,1.73l1.47.66c1.3.51,2.32,1.25,2.32,2.8,0,1.67-1.41,3-3.72,3-1.54,0-2.87-.61-3.81-1.55Z"/>
      <path class="cls-1" d="M225.97,80.64l.8-.93c.8.79,1.89,1.3,3.08,1.3,1.44,0,2.27-.69,2.27-1.65,0-1.12-.82-1.44-1.87-1.89l-1.52-.67c-1.04-.42-2.26-1.15-2.26-2.71s1.44-2.79,3.44-2.79c1.31,0,2.47.53,3.24,1.3l-.71.86c-.69-.61-1.49-.98-2.58-.98-1.22,0-2.04.58-2.04,1.52,0,1.01.98,1.38,1.88,1.73l1.47.66c1.3.51,2.32,1.25,2.32,2.8,0,1.67-1.41,3-3.72,3-1.54,0-2.87-.61-3.81-1.55Z"/>
    </g>
  </g>
</svg>